# xmcd CD database file
#
# Track frame offsets:
#	150
#	21572
#	60224
#	76712
#	109026
#	131100
#	156584
#	166903
#	185861
#	212657
#	226511
#	254411
#	276375
#	298238
#	325024
#
# Disc length: 4597 seconds
#
# Revision: 0
# Processed by: cddbd v1.5.1PL0 Copyright (c) Steve Scherf et al.
# Submitted via: CDex 1.40Beta8
#
DISCID=d811f30f
DTITLE=Snowy White and White Flames - DeLuxe Collection
DYEAR=1900
DGENRE=Blues
TTITLE0=The Time Has Come
TTITLE1=Midnight Blues
TTITLE2=Discovery
TTITLE3=Looking For Somebody
TTITLE4=Highway To The Sun (with C.Rea)
TTITLE5=The Water's Edge - Stepping Stones
TTITLE6=I'll Be Moving On
TTITLE7=Little Wings
TTITLE8=Love, Pain and Sorrow (with D.Gilmour)
TTITLE9=Muddy Fingers
TTITLE10=That Certain Thing
TTITLE11=Voices In The Rain
TTITLE12=Melting
TTITLE13=Land Of Freedom
TTITLE14=For You
EXTD=ID3G: 0
EXTT0=
EXTT1=
EXTT2=
EXTT3=
EXTT4=
EXTT5=
EXTT6=
EXTT7=
EXTT8=
EXTT9=
EXTT10=
EXTT11=
EXTT12=
EXTT13=
EXTT14=
PLAYORDER=
